<svg xmlns="http://www.w3.org/2000/svg" xmlns:xlink="http://www.w3.org/1999/xlink" zoomAndPan="magnify" preserveAspectRatio="xMidYMid meet" version="1.0" viewBox="35.67 169.48 157.98 36.02"><defs><g/><clipPath id="71c1dfa693"><path d="M 48 171 L 71.644531 171 L 71.644531 205.484375 L 48 205.484375 Z M 48 171 " clip-rule="nonzero"/></clipPath><clipPath id="56345f71f2"><path d="M 35.644531 169.484375 L 60 169.484375 L 60 203 L 35.644531 203 Z M 35.644531 169.484375 " clip-rule="nonzero"/></clipPath></defs><g fill="#69b550" fill-opacity="1"><g transform="translate(72.396588, 194.317434)"><g><path d="M 1.363281 -0.183594 C 1.484375 -0.03125 1.605469 0.03125 1.785156 0.03125 C 2.664062 0.0625 3.574219 0.0625 4.453125 0.0625 C 4.542969 0.0625 4.601562 0.0625 4.695312 0.0625 C 4.9375 0.03125 5.207031 -0.210938 5.238281 -0.453125 C 5.269531 -0.515625 5.269531 -0.546875 5.269531 -0.574219 C 5.328125 -1.273438 5.359375 -1.96875 5.328125 -2.664062 C 5.269531 -5.480469 5.328125 -8.265625 5.300781 -11.050781 C 5.300781 -11.445312 5.421875 -11.75 5.691406 -11.992188 C 6.390625 -12.6875 7.207031 -13.082031 8.175781 -13.050781 C 8.238281 -13.050781 8.265625 -13.050781 8.296875 -13.050781 C 8.570312 -13.050781 8.84375 -12.992188 9.113281 -12.898438 C 9.507812 -12.75 9.902344 -12.597656 10.296875 -12.445312 C 10.539062 -12.386719 10.75 -12.386719 10.992188 -12.445312 C 11.144531 -12.476562 11.292969 -12.535156 11.445312 -12.566406 C 11.902344 -12.71875 12.265625 -12.992188 12.566406 -13.355469 C 12.6875 -13.503906 12.75 -13.6875 12.808594 -13.898438 C 12.898438 -14.230469 12.808594 -14.503906 12.535156 -14.714844 C 12.292969 -14.957031 11.992188 -15.140625 11.597656 -15.140625 C 11.417969 -15.171875 11.234375 -15.203125 11.023438 -15.171875 C 10.386719 -15.140625 9.71875 -15.203125 9.085938 -14.957031 C 8.964844 -14.898438 8.84375 -14.929688 8.722656 -14.898438 C 8.539062 -14.898438 8.359375 -14.835938 8.175781 -14.777344 C 7.570312 -14.59375 7.023438 -14.324219 6.480469 -13.988281 C 6.238281 -13.808594 5.996094 -13.597656 5.722656 -13.476562 C 5.632812 -13.414062 5.480469 -13.476562 5.421875 -13.597656 C 5.390625 -13.65625 5.359375 -13.71875 5.359375 -13.808594 C 5.328125 -14.019531 5.300781 -14.261719 5.269531 -14.472656 C 5.269531 -14.65625 5.058594 -14.867188 4.875 -14.867188 C 4.84375 -14.898438 4.816406 -14.898438 4.785156 -14.898438 C 3.9375 -14.957031 3.058594 -14.957031 2.210938 -14.929688 C 2 -14.929688 1.847656 -14.808594 1.757812 -14.625 C 1.664062 -14.445312 1.574219 -14.292969 1.542969 -14.082031 C 1.515625 -13.6875 1.515625 -13.292969 1.515625 -12.929688 C 1.515625 -12.65625 1.515625 -12.386719 1.484375 -12.113281 C 1.394531 -11.417969 1.363281 -10.71875 1.363281 -10.023438 C 1.332031 -8.691406 1.332031 -7.386719 1.332031 -6.054688 C 1.300781 -5.480469 1.332031 -4.875 1.210938 -4.300781 C 1.179688 -4.148438 1.179688 -3.996094 1.179688 -3.847656 C 1.152344 -3.300781 1.121094 -2.753906 1.121094 -2.210938 C 1.121094 -1.878906 1.121094 -1.515625 1.121094 -1.179688 C 1.121094 -0.96875 1.152344 -0.789062 1.242188 -0.605469 C 1.273438 -0.453125 1.332031 -0.304688 1.363281 -0.183594 Z M 1.363281 -0.183594 "/></g></g></g><g fill="#69b550" fill-opacity="1"><g transform="translate(85.477615, 194.317434)"><g><path d="M 7.933594 0.0898438 C 8.144531 0.0898438 8.386719 0.121094 8.628906 0.121094 C 9.296875 0.121094 9.933594 0.03125 10.566406 -0.210938 C 11.386719 -0.546875 12.171875 -0.9375 12.929688 -1.421875 C 13.050781 -1.484375 13.140625 -1.574219 13.234375 -1.636719 C 13.382812 -1.757812 13.445312 -1.9375 13.476562 -2.148438 C 13.503906 -2.421875 13.261719 -2.664062 12.992188 -2.632812 C 12.777344 -2.605469 12.597656 -2.605469 12.414062 -2.511719 C 12.050781 -2.363281 11.660156 -2.300781 11.292969 -2.179688 C 10.871094 -2.058594 10.445312 -2.027344 10.023438 -2.058594 C 9.628906 -2.089844 9.265625 -2.210938 8.902344 -2.332031 C 8.296875 -2.511719 7.753906 -2.816406 7.296875 -3.269531 C 6.753906 -3.753906 6.328125 -4.359375 5.933594 -4.964844 C 5.875 -5.058594 5.84375 -5.117188 5.8125 -5.179688 C 5.570312 -5.84375 5.300781 -6.480469 5.148438 -7.175781 C 5.148438 -7.265625 5.300781 -7.507812 5.390625 -7.539062 C 5.480469 -7.570312 5.542969 -7.601562 5.601562 -7.632812 C 6.148438 -7.722656 6.691406 -7.753906 7.238281 -7.753906 C 8.054688 -7.753906 8.871094 -7.753906 9.691406 -7.753906 C 10.902344 -7.753906 12.082031 -7.8125 13.292969 -7.875 C 13.414062 -7.875 13.535156 -7.902344 13.625 -7.933594 C 13.808594 -7.964844 13.929688 -8.054688 13.988281 -8.175781 C 14.082031 -8.328125 14.140625 -8.480469 14.171875 -8.628906 C 14.230469 -9.113281 14.171875 -9.628906 14.050781 -10.113281 C 13.988281 -10.386719 13.929688 -10.660156 13.867188 -10.902344 C 13.746094 -11.386719 13.65625 -11.902344 13.476562 -12.386719 C 13.324219 -12.839844 13.050781 -13.203125 12.6875 -13.503906 C 11.929688 -14.171875 11.082031 -14.714844 10.082031 -14.988281 C 9.8125 -15.082031 9.570312 -15.140625 9.296875 -15.140625 C 8.933594 -15.140625 8.601562 -15.140625 8.265625 -15.019531 C 8.117188 -14.957031 7.964844 -14.957031 7.8125 -14.929688 C 7.144531 -14.777344 6.511719 -14.65625 5.875 -14.445312 C 4.90625 -14.171875 3.996094 -13.71875 3.238281 -13.019531 C 3.117188 -12.929688 2.996094 -12.808594 2.90625 -12.71875 C 2.390625 -12.234375 2 -11.660156 1.695312 -11.023438 C 1.273438 -10.082031 1.058594 -9.113281 0.878906 -8.117188 C 0.847656 -8.023438 0.847656 -7.964844 0.847656 -7.875 C 0.816406 -6.84375 0.789062 -5.785156 1.058594 -4.753906 C 1.121094 -4.359375 1.273438 -4.027344 1.453125 -3.664062 C 1.785156 -3.089844 2.179688 -2.574219 2.664062 -2.121094 C 2.753906 -2.027344 2.847656 -1.96875 2.9375 -1.878906 C 3.695312 -1.363281 4.480469 -0.847656 5.328125 -0.453125 C 5.933594 -0.183594 6.570312 0.03125 7.238281 0.0625 C 7.449219 0.0625 7.691406 0.0625 7.933594 0.0898438 Z M 7.753906 -8.78125 C 7.175781 -8.78125 6.601562 -8.78125 6.027344 -8.78125 C 5.875 -8.78125 5.722656 -8.8125 5.570312 -8.84375 C 5.421875 -8.871094 5.269531 -9.023438 5.269531 -9.175781 C 5.238281 -9.234375 5.238281 -9.328125 5.238281 -9.386719 C 5.238281 -9.539062 5.269531 -9.691406 5.300781 -9.839844 C 5.421875 -10.445312 5.601562 -11.050781 5.8125 -11.628906 C 5.84375 -11.78125 5.933594 -11.902344 6.027344 -12.050781 C 6.207031 -12.324219 6.417969 -12.597656 6.691406 -12.839844 C 6.875 -13.050781 7.117188 -13.203125 7.359375 -13.292969 C 7.691406 -13.414062 7.996094 -13.535156 8.359375 -13.566406 C 8.601562 -13.566406 8.8125 -13.597656 9.054688 -13.597656 C 9.507812 -13.597656 9.871094 -13.382812 10.113281 -12.992188 C 10.265625 -12.71875 10.386719 -12.445312 10.417969 -12.144531 C 10.445312 -12.023438 10.476562 -11.902344 10.476562 -11.78125 C 10.476562 -11.171875 10.476562 -10.539062 10.445312 -9.933594 C 10.445312 -9.78125 10.417969 -9.628906 10.417969 -9.476562 C 10.355469 -8.992188 10.082031 -8.84375 9.71875 -8.8125 C 9.386719 -8.78125 9.023438 -8.78125 8.691406 -8.78125 C 8.386719 -8.78125 8.054688 -8.78125 7.753906 -8.78125 Z M 7.753906 -8.78125 "/></g></g></g><g fill="#69b550" fill-opacity="1"><g transform="translate(100.526846, 194.317434)"><g><path d="M 8.328125 0.0625 C 8.628906 0.0625 9.023438 0.0625 9.386719 0.03125 C 9.71875 0.03125 9.992188 -0.0625 10.296875 -0.152344 C 10.960938 -0.425781 11.566406 -0.726562 12.203125 -1.03125 C 12.566406 -1.242188 12.929688 -1.484375 13.234375 -1.757812 C 13.324219 -1.847656 13.382812 -1.9375 13.445312 -2.058594 C 13.535156 -2.269531 13.414062 -2.542969 13.203125 -2.632812 C 13.113281 -2.632812 13.019531 -2.664062 12.960938 -2.664062 C 12.6875 -2.605469 12.414062 -2.574219 12.171875 -2.484375 C 11.476562 -2.210938 10.75 -2.121094 10.023438 -2.121094 C 9.449219 -2.148438 8.933594 -2.269531 8.449219 -2.511719 C 8.296875 -2.574219 8.175781 -2.664062 8.023438 -2.726562 C 7.449219 -2.996094 6.996094 -3.421875 6.632812 -3.9375 C 6.480469 -4.148438 6.328125 -4.390625 6.175781 -4.601562 C 5.753906 -5.269531 5.449219 -5.964844 5.238281 -6.722656 C 5.179688 -6.902344 5.117188 -7.085938 5.085938 -7.296875 C 4.964844 -7.753906 4.964844 -8.207031 5.085938 -8.660156 C 5.179688 -8.964844 5.207031 -9.265625 5.238281 -9.570312 C 5.269531 -9.78125 5.269531 -9.960938 5.300781 -10.144531 C 5.449219 -10.628906 5.601562 -11.113281 5.785156 -11.597656 C 5.933594 -11.929688 6.148438 -12.265625 6.417969 -12.566406 C 6.570312 -12.6875 6.691406 -12.839844 6.84375 -12.960938 C 7.023438 -13.113281 7.207031 -13.234375 7.449219 -13.324219 C 8.207031 -13.535156 8.238281 -13.566406 9.023438 -13.566406 C 9.234375 -13.566406 9.417969 -13.566406 9.628906 -13.566406 C 10.203125 -13.535156 10.75 -13.355469 11.265625 -13.050781 C 11.476562 -12.929688 11.660156 -12.777344 11.808594 -12.628906 C 12.050781 -12.445312 12.292969 -12.234375 12.535156 -12.023438 C 12.6875 -11.871094 12.992188 -11.929688 13.140625 -12.113281 C 13.171875 -12.144531 13.203125 -12.171875 13.203125 -12.203125 C 13.292969 -12.292969 13.324219 -12.414062 13.292969 -12.535156 C 13.203125 -12.808594 13.082031 -13.050781 12.898438 -13.234375 C 12.171875 -13.960938 11.324219 -14.503906 10.355469 -14.867188 C 10.265625 -14.898438 10.144531 -14.929688 10.023438 -14.957031 C 9.539062 -15.171875 9.054688 -15.171875 8.539062 -15.082031 C 8.359375 -15.019531 8.175781 -14.957031 7.996094 -14.957031 C 7.660156 -14.929688 7.359375 -14.835938 7.085938 -14.746094 C 6.78125 -14.65625 6.480469 -14.59375 6.175781 -14.535156 C 5.601562 -14.382812 5.058594 -14.140625 4.542969 -13.898438 C 3.785156 -13.503906 3.148438 -12.929688 2.542969 -12.324219 C 2.484375 -12.292969 2.421875 -12.203125 2.390625 -12.144531 C 2.027344 -11.6875 1.757812 -11.171875 1.515625 -10.628906 C 1.210938 -9.839844 0.757812 -8.117188 0.847656 -7.117188 C 0.847656 -6.8125 0.847656 -6.511719 0.847656 -6.207031 C 0.847656 -5.996094 0.878906 -5.8125 0.910156 -5.632812 C 0.9375 -5.300781 1 -4.996094 1.058594 -4.695312 C 1.089844 -4.542969 1.152344 -4.390625 1.210938 -4.269531 C 1.300781 -3.90625 1.484375 -3.632812 1.664062 -3.332031 C 2.121094 -2.632812 2.664062 -2.058594 3.359375 -1.574219 C 3.9375 -1.210938 4.574219 -0.847656 5.179688 -0.574219 C 5.933594 -0.210938 6.691406 0.0625 7.539062 0.03125 C 7.753906 0.03125 7.996094 0.0625 8.328125 0.0625 Z M 8.328125 0.0625 "/></g></g></g><g fill="#69b550" fill-opacity="1"><g transform="translate(114.879639, 194.317434)"><g><path d="M 5.359375 -7.601562 C 5.359375 -8.238281 5.359375 -8.902344 5.359375 -9.570312 C 5.359375 -10.929688 5.359375 -12.292969 5.359375 -13.625 C 5.359375 -13.867188 5.359375 -14.109375 5.300781 -14.324219 C 5.269531 -14.59375 5.117188 -14.835938 4.84375 -14.957031 C 4.632812 -15.050781 4.421875 -15.109375 4.179688 -15.109375 C 3.480469 -15.140625 2.785156 -15.140625 2.089844 -15.140625 C 2 -15.140625 1.9375 -15.109375 1.847656 -15.109375 C 1.785156 -15.082031 1.695312 -15.050781 1.636719 -15.019531 C 1.394531 -14.867188 1.210938 -14.65625 1.179688 -14.382812 C 1.121094 -14.082031 1.121094 -13.746094 1.058594 -13.445312 C 1 -13.019531 0.96875 -12.597656 1.058594 -12.171875 C 1.179688 -11.628906 1.179688 -11.113281 1.179688 -10.566406 C 1.179688 -9.539062 1.179688 -8.539062 1.179688 -7.539062 C 1.210938 -5.664062 1.210938 -3.816406 1.152344 -1.9375 C 1.152344 -1.515625 1.152344 -1.089844 1.179688 -0.667969 C 1.179688 -0.515625 1.273438 -0.394531 1.394531 -0.273438 C 1.574219 -0.121094 1.785156 -0.03125 2.027344 -0.03125 C 2.847656 -0.03125 3.632812 -0.03125 4.453125 -0.03125 C 4.542969 -0.03125 4.601562 -0.03125 4.695312 -0.0625 C 4.753906 -0.0898438 4.84375 -0.121094 4.90625 -0.152344 C 5.148438 -0.363281 5.300781 -0.636719 5.328125 -0.96875 C 5.359375 -1.300781 5.359375 -1.664062 5.359375 -2 C 5.359375 -3.875 5.359375 -5.722656 5.359375 -7.601562 Z M 1.179688 -18.078125 C 1.179688 -18.046875 1.179688 -17.894531 1.210938 -17.746094 C 1.242188 -17.53125 1.332031 -17.320312 1.515625 -17.140625 C 1.785156 -16.867188 2.089844 -16.65625 2.484375 -16.535156 C 3.480469 -16.292969 3.332031 -16.320312 4.421875 -16.59375 C 4.664062 -16.683594 4.90625 -16.835938 5.027344 -17.078125 C 5.300781 -17.53125 5.390625 -18.015625 5.328125 -18.53125 C 5.300781 -18.621094 5.300781 -18.683594 5.269531 -18.773438 C 4.90625 -19.53125 4.300781 -19.957031 3.480469 -20.046875 C 2.96875 -20.105469 2.484375 -19.984375 2.027344 -19.742188 C 1.726562 -19.621094 1.515625 -19.410156 1.363281 -19.109375 C 1.242188 -18.835938 1.179688 -18.53125 1.179688 -18.078125 Z M 1.179688 -18.078125 "/></g></g></g><g fill="#69b550" fill-opacity="1"><g transform="translate(121.450428, 194.317434)"><g><path d="M 1.332031 -3.96875 C 1.332031 -3.269531 1.300781 -2.574219 1.332031 -1.878906 C 1.363281 -1.363281 1.363281 -0.847656 1.300781 -0.363281 C 1.273438 0.210938 1.242188 0.816406 1.242188 1.394531 C 1.242188 2.695312 1.273438 4.027344 1.242188 5.328125 C 1.242188 5.785156 1.273438 6.175781 1.363281 6.601562 C 1.394531 6.691406 1.421875 6.753906 1.453125 6.8125 C 1.574219 7.023438 1.726562 7.207031 2 7.238281 C 2.058594 7.238281 2.148438 7.238281 2.210938 7.238281 C 3.179688 7.265625 4.148438 7.265625 5.117188 7.265625 C 5.238281 7.265625 5.359375 7.238281 5.480469 7.207031 C 5.601562 7.207031 5.753906 7.023438 5.785156 6.902344 C 5.8125 6.8125 5.84375 6.753906 5.84375 6.660156 C 5.875 6.328125 5.90625 5.996094 5.90625 5.632812 C 5.90625 5.058594 5.90625 4.480469 5.875 3.875 C 5.875 2.96875 5.875 2.027344 5.875 1.089844 C 5.875 0.96875 5.90625 0.847656 5.90625 0.757812 C 5.90625 0.574219 6.148438 0.394531 6.328125 0.425781 C 6.601562 0.453125 6.875 0.484375 7.117188 0.574219 C 7.359375 0.667969 7.632812 0.726562 7.902344 0.726562 C 8.144531 0.757812 8.386719 0.789062 8.601562 0.816406 C 8.902344 0.847656 9.234375 0.847656 9.539062 0.789062 C 9.71875 0.757812 9.902344 0.726562 10.113281 0.695312 C 10.597656 0.636719 11.082031 0.484375 11.566406 0.332031 C 11.902344 0.242188 12.203125 0.0625 12.507812 -0.121094 C 12.808594 -0.363281 13.140625 -0.574219 13.445312 -0.816406 C 13.808594 -1.089844 14.140625 -1.421875 14.445312 -1.785156 C 14.6875 -2.121094 14.929688 -2.484375 15.171875 -2.847656 C 15.65625 -3.601562 16.019531 -4.390625 16.199219 -5.300781 C 16.320312 -5.90625 16.382812 -6.511719 16.320312 -7.144531 C 16.261719 -7.632812 16.171875 -8.144531 16.109375 -8.628906 C 16.019531 -9.355469 15.808594 -10.082031 15.535156 -10.75 C 15.292969 -11.324219 15.050781 -11.902344 14.746094 -12.445312 C 14.59375 -12.71875 14.414062 -12.960938 14.230469 -13.234375 C 13.777344 -13.839844 13.140625 -14.203125 12.414062 -14.414062 C 11.929688 -14.566406 11.445312 -14.65625 10.929688 -14.65625 C 10.476562 -14.65625 9.992188 -14.65625 9.539062 -14.65625 C 9.355469 -14.65625 9.144531 -14.59375 8.964844 -14.566406 C 8.359375 -14.382812 7.78125 -14.140625 7.238281 -13.898438 C 7.023438 -13.808594 6.8125 -13.6875 6.601562 -13.597656 C 6.539062 -13.566406 6.449219 -13.535156 6.390625 -13.503906 C 6.238281 -13.445312 5.964844 -13.597656 5.933594 -13.777344 C 5.90625 -14.050781 5.84375 -14.292969 5.8125 -14.566406 C 5.785156 -14.746094 5.691406 -14.835938 5.542969 -14.929688 C 5.421875 -15.019531 5.269531 -15.082031 5.117188 -15.082031 C 4.148438 -15.109375 3.179688 -15.109375 2.210938 -15.109375 C 1.785156 -15.082031 1.453125 -14.808594 1.363281 -14.414062 C 1.273438 -13.988281 1.210938 -13.597656 1.210938 -13.140625 C 1.210938 -12.414062 1.210938 -11.6875 1.273438 -10.929688 C 1.332031 -9.960938 1.332031 -8.992188 1.332031 -8.023438 C 1.332031 -6.691406 1.332031 -5.328125 1.332031 -3.96875 Z M 8.902344 0.152344 C 8.628906 0.0898438 8.449219 0.0625 8.265625 0 C 7.902344 -0.0625 7.601562 -0.210938 7.296875 -0.394531 C 6.84375 -0.695312 6.449219 -1.058594 6.117188 -1.484375 C 5.964844 -1.726562 5.84375 -1.96875 5.8125 -2.242188 C 5.753906 -2.785156 5.722656 -3.300781 5.785156 -3.847656 C 5.8125 -4.332031 5.84375 -4.785156 5.84375 -5.238281 C 5.84375 -6.996094 5.84375 -8.75 5.84375 -10.476562 C 5.84375 -10.78125 5.84375 -11.113281 5.84375 -11.417969 C 5.875 -11.75 6.027344 -11.992188 6.296875 -12.203125 C 6.632812 -12.445312 7.023438 -12.597656 7.449219 -12.6875 C 7.632812 -12.75 7.8125 -12.777344 8.023438 -12.71875 C 8.238281 -12.65625 8.480469 -12.628906 8.691406 -12.566406 C 8.964844 -12.507812 9.207031 -12.386719 9.417969 -12.203125 C 9.839844 -11.808594 10.203125 -11.355469 10.476562 -10.839844 C 10.871094 -10.023438 11.144531 -9.175781 11.234375 -8.296875 C 11.234375 -8.238281 11.234375 -8.207031 11.234375 -8.175781 C 11.265625 -6.480469 11.292969 -4.753906 10.929688 -3.089844 C 10.78125 -2.363281 10.597656 -1.664062 10.324219 -0.96875 C 10.113281 -0.453125 9.78125 -0.121094 9.265625 0.03125 C 9.175781 0.0625 9.054688 0.121094 8.902344 0.152344 Z M 8.902344 0.152344 "/></g></g></g><g fill="#ffde59" fill-opacity="1"><g transform="translate(138.190433, 194.317434)"><g><path d="M 7.933594 0.0898438 C 8.144531 0.0898438 8.386719 0.121094 8.628906 0.121094 C 9.296875 0.121094 9.933594 0.03125 10.566406 -0.210938 C 11.386719 -0.546875 12.171875 -0.9375 12.929688 -1.421875 C 13.050781 -1.484375 13.140625 -1.574219 13.234375 -1.636719 C 13.382812 -1.757812 13.445312 -1.9375 13.476562 -2.148438 C 13.503906 -2.421875 13.261719 -2.664062 12.992188 -2.632812 C 12.777344 -2.605469 12.597656 -2.605469 12.414062 -2.511719 C 12.050781 -2.363281 11.660156 -2.300781 11.292969 -2.179688 C 10.871094 -2.058594 10.445312 -2.027344 10.023438 -2.058594 C 9.628906 -2.089844 9.265625 -2.210938 8.902344 -2.332031 C 8.296875 -2.511719 7.753906 -2.816406 7.296875 -3.269531 C 6.753906 -3.753906 6.328125 -4.359375 5.933594 -4.964844 C 5.875 -5.058594 5.84375 -5.117188 5.8125 -5.179688 C 5.570312 -5.84375 5.300781 -6.480469 5.148438 -7.175781 C 5.148438 -7.265625 5.300781 -7.507812 5.390625 -7.539062 C 5.480469 -7.570312 5.542969 -7.601562 5.601562 -7.632812 C 6.148438 -7.722656 6.691406 -7.753906 7.238281 -7.753906 C 8.054688 -7.753906 8.871094 -7.753906 9.691406 -7.753906 C 10.902344 -7.753906 12.082031 -7.8125 13.292969 -7.875 C 13.414062 -7.875 13.535156 -7.902344 13.625 -7.933594 C 13.808594 -7.964844 13.929688 -8.054688 13.988281 -8.175781 C 14.082031 -8.328125 14.140625 -8.480469 14.171875 -8.628906 C 14.230469 -9.113281 14.171875 -9.628906 14.050781 -10.113281 C 13.988281 -10.386719 13.929688 -10.660156 13.867188 -10.902344 C 13.746094 -11.386719 13.65625 -11.902344 13.476562 -12.386719 C 13.324219 -12.839844 13.050781 -13.203125 12.6875 -13.503906 C 11.929688 -14.171875 11.082031 -14.714844 10.082031 -14.988281 C 9.8125 -15.082031 9.570312 -15.140625 9.296875 -15.140625 C 8.933594 -15.140625 8.601562 -15.140625 8.265625 -15.019531 C 8.117188 -14.957031 7.964844 -14.957031 7.8125 -14.929688 C 7.144531 -14.777344 6.511719 -14.65625 5.875 -14.445312 C 4.90625 -14.171875 3.996094 -13.71875 3.238281 -13.019531 C 3.117188 -12.929688 2.996094 -12.808594 2.90625 -12.71875 C 2.390625 -12.234375 2 -11.660156 1.695312 -11.023438 C 1.273438 -10.082031 1.058594 -9.113281 0.878906 -8.117188 C 0.847656 -8.023438 0.847656 -7.964844 0.847656 -7.875 C 0.816406 -6.84375 0.789062 -5.785156 1.058594 -4.753906 C 1.121094 -4.359375 1.273438 -4.027344 1.453125 -3.664062 C 1.785156 -3.089844 2.179688 -2.574219 2.664062 -2.121094 C 2.753906 -2.027344 2.847656 -1.96875 2.9375 -1.878906 C 3.695312 -1.363281 4.480469 -0.847656 5.328125 -0.453125 C 5.933594 -0.183594 6.570312 0.03125 7.238281 0.0625 C 7.449219 0.0625 7.691406 0.0625 7.933594 0.0898438 Z M 7.753906 -8.78125 C 7.175781 -8.78125 6.601562 -8.78125 6.027344 -8.78125 C 5.875 -8.78125 5.722656 -8.8125 5.570312 -8.84375 C 5.421875 -8.871094 5.269531 -9.023438 5.269531 -9.175781 C 5.238281 -9.234375 5.238281 -9.328125 5.238281 -9.386719 C 5.238281 -9.539062 5.269531 -9.691406 5.300781 -9.839844 C 5.421875 -10.445312 5.601562 -11.050781 5.8125 -11.628906 C 5.84375 -11.78125 5.933594 -11.902344 6.027344 -12.050781 C 6.207031 -12.324219 6.417969 -12.597656 6.691406 -12.839844 C 6.875 -13.050781 7.117188 -13.203125 7.359375 -13.292969 C 7.691406 -13.414062 7.996094 -13.535156 8.359375 -13.566406 C 8.601562 -13.566406 8.8125 -13.597656 9.054688 -13.597656 C 9.507812 -13.597656 9.871094 -13.382812 10.113281 -12.992188 C 10.265625 -12.71875 10.386719 -12.445312 10.417969 -12.144531 C 10.445312 -12.023438 10.476562 -11.902344 10.476562 -11.78125 C 10.476562 -11.171875 10.476562 -10.539062 10.445312 -9.933594 C 10.445312 -9.78125 10.417969 -9.628906 10.417969 -9.476562 C 10.355469 -8.992188 10.082031 -8.84375 9.71875 -8.8125 C 9.386719 -8.78125 9.023438 -8.78125 8.691406 -8.78125 C 8.386719 -8.78125 8.054688 -8.78125 7.753906 -8.78125 Z M 7.753906 -8.78125 "/></g></g></g><g fill="#ffde59" fill-opacity="1"><g transform="translate(153.239665, 194.317434)"><g><path d="M 12.898438 -8.75 C 12.898438 -9.113281 12.871094 -9.386719 12.898438 -9.660156 C 12.898438 -10.082031 12.871094 -10.507812 12.777344 -10.929688 C 12.71875 -11.082031 12.71875 -11.234375 12.6875 -11.386719 C 12.597656 -11.902344 12.386719 -12.355469 12.082031 -12.75 C 11.71875 -13.234375 11.292969 -13.625 10.839844 -13.988281 C 10.539062 -14.230469 10.234375 -14.445312 9.839844 -14.59375 C 9.539062 -14.714844 9.207031 -14.835938 8.871094 -14.988281 C 8.628906 -15.082031 8.359375 -15.140625 8.085938 -15.140625 C 7.8125 -15.140625 7.539062 -15.140625 7.265625 -15.140625 C 6.996094 -15.140625 6.753906 -15.082031 6.480469 -15.019531 C 5.601562 -14.835938 4.785156 -14.472656 3.9375 -14.171875 C 3.574219 -14.019531 3.269531 -13.808594 2.96875 -13.535156 C 2.542969 -13.140625 2.179688 -12.6875 1.90625 -12.171875 C 1.847656 -12.023438 1.785156 -11.871094 1.726562 -11.75 C 1.695312 -11.660156 1.695312 -11.597656 1.664062 -11.507812 C 1.664062 -11.386719 1.695312 -11.292969 1.757812 -11.171875 C 1.816406 -11.050781 2 -10.992188 2.148438 -11.023438 C 2.269531 -11.050781 2.363281 -11.113281 2.421875 -11.203125 C 2.632812 -11.445312 2.753906 -11.75 2.90625 -12.023438 C 3.117188 -12.355469 3.359375 -12.628906 3.664062 -12.871094 C 3.847656 -13.019531 4.027344 -13.171875 4.238281 -13.292969 C 4.453125 -13.445312 4.722656 -13.535156 4.996094 -13.566406 C 5.269531 -13.597656 5.542969 -13.65625 5.8125 -13.65625 C 6.601562 -13.746094 7.238281 -13.414062 7.753906 -12.839844 C 7.84375 -12.71875 7.933594 -12.566406 7.964844 -12.414062 C 8.144531 -11.902344 8.296875 -11.386719 8.296875 -10.839844 C 8.265625 -10.566406 8.328125 -10.296875 8.359375 -10.023438 C 8.417969 -9.476562 8.359375 -8.933594 8.238281 -8.417969 C 8.238281 -8.296875 8.023438 -8.144531 7.902344 -8.117188 C 7.78125 -8.117188 7.660156 -8.117188 7.570312 -8.117188 C 7.207031 -8.144531 6.84375 -8.117188 6.511719 -8.085938 C 6.207031 -8.023438 5.90625 -7.996094 5.601562 -7.933594 C 5.421875 -7.933594 5.269531 -7.902344 5.117188 -7.875 C 4.574219 -7.691406 4.027344 -7.507812 3.511719 -7.238281 C 2.785156 -6.875 2.210938 -6.390625 1.726562 -5.785156 C 1.542969 -5.542969 1.363281 -5.269531 1.242188 -4.964844 C 1.03125 -4.453125 0.878906 -3.875 0.847656 -3.300781 C 0.789062 -2.484375 1 -1.757812 1.484375 -1.089844 C 1.664062 -0.847656 1.90625 -0.636719 2.179688 -0.484375 C 2.695312 -0.210938 3.238281 -0.03125 3.847656 -0.03125 C 4.148438 -0.03125 4.453125 -0.03125 4.753906 -0.03125 C 4.875 -0.03125 4.996094 -0.03125 5.117188 -0.0625 C 5.875 -0.242188 6.632812 -0.425781 7.296875 -0.816406 C 7.632812 -1.03125 7.996094 -1.179688 8.328125 -1.363281 C 8.449219 -1.421875 8.660156 -1.394531 8.75 -1.273438 C 8.84375 -1.179688 8.902344 -1.121094 8.992188 -1.03125 C 9.085938 -0.910156 9.207031 -0.789062 9.296875 -0.695312 C 9.570312 -0.425781 9.902344 -0.304688 10.265625 -0.273438 C 10.628906 -0.273438 11.023438 -0.273438 11.417969 -0.273438 C 11.660156 -0.273438 11.871094 -0.363281 12.050781 -0.515625 C 12.171875 -0.636719 12.265625 -0.757812 12.355469 -0.878906 C 12.566406 -1.242188 12.6875 -1.664062 12.6875 -2.089844 C 12.6875 -2.363281 12.6875 -2.632812 12.6875 -2.90625 C 12.71875 -3.664062 12.6875 -4.390625 12.71875 -5.117188 C 12.71875 -5.753906 12.71875 -6.359375 12.808594 -6.996094 C 12.871094 -7.601562 12.898438 -8.238281 12.898438 -8.75 Z M 8.507812 -4.117188 C 8.480469 -3.96875 8.480469 -3.816406 8.449219 -3.664062 C 8.449219 -3.511719 8.359375 -3.390625 8.238281 -3.269531 C 8.117188 -3.179688 7.996094 -3.089844 7.84375 -3.058594 C 7.238281 -2.875 6.632812 -2.816406 6.027344 -2.785156 C 5.691406 -2.753906 5.421875 -2.816406 5.117188 -2.96875 C 4.722656 -3.179688 4.480469 -3.511719 4.300781 -3.90625 C 4.269531 -4.027344 4.238281 -4.148438 4.210938 -4.238281 C 4.058594 -4.722656 4.089844 -5.148438 4.300781 -5.601562 C 4.453125 -5.933594 4.664062 -6.175781 4.996094 -6.328125 C 5.421875 -6.480469 5.875 -6.570312 6.328125 -6.691406 C 6.359375 -6.691406 6.417969 -6.691406 6.449219 -6.691406 C 6.996094 -6.722656 7.539062 -6.722656 8.054688 -6.539062 C 8.175781 -6.511719 8.238281 -6.417969 8.265625 -6.328125 C 8.296875 -6.269531 8.296875 -6.238281 8.328125 -6.207031 C 8.359375 -5.664062 8.386719 -5.117188 8.480469 -4.601562 C 8.480469 -4.453125 8.480469 -4.300781 8.507812 -4.117188 Z M 8.507812 -4.117188 "/></g></g></g><g fill="#ffde59" fill-opacity="1"><g transform="translate(167.198815, 194.317434)"><g><path d="M 7.84375 -2.90625 C 7.8125 -2.785156 7.78125 -2.632812 7.753906 -2.484375 C 7.691406 -2.058594 7.480469 -1.757812 7.207031 -1.484375 C 6.964844 -1.242188 6.691406 -1.089844 6.390625 -1.058594 C 6.148438 -1.03125 5.90625 -1 5.691406 -1 C 5.085938 -0.96875 4.511719 -1.03125 3.9375 -0.96875 C 3.785156 -0.9375 3.632812 -0.96875 3.480469 -1 C 2.875 -1.152344 2.242188 -1.152344 1.636719 -1.363281 C 1.515625 -1.394531 1.332031 -1.394531 1.179688 -1.394531 C 1.058594 -1.394531 0.910156 -1.210938 0.9375 -1.058594 C 0.9375 -0.878906 1.03125 -0.695312 1.179688 -0.546875 C 1.300781 -0.453125 1.421875 -0.363281 1.574219 -0.304688 C 2.058594 -0.0898438 2.574219 0.03125 3.148438 0.03125 C 4.027344 0.0625 4.9375 0.0625 5.8125 0.0898438 C 6.601562 0.0898438 7.359375 0 8.117188 -0.210938 C 8.507812 -0.304688 8.84375 -0.484375 9.144531 -0.726562 C 9.386719 -0.9375 9.597656 -1.152344 9.8125 -1.363281 C 10.445312 -2 10.839844 -2.726562 11.082031 -3.574219 C 11.203125 -3.996094 11.234375 -4.421875 11.113281 -4.816406 C 10.960938 -5.300781 10.808594 -5.785156 10.539062 -6.238281 C 10.355469 -6.570312 10.113281 -6.875 9.8125 -7.117188 C 9.144531 -7.660156 8.480469 -8.175781 7.753906 -8.628906 C 7.238281 -8.933594 6.753906 -9.234375 6.238281 -9.507812 C 5.875 -9.71875 5.511719 -9.960938 5.179688 -10.234375 C 4.816406 -10.476562 4.511719 -10.75 4.238281 -11.082031 C 3.996094 -11.355469 3.875 -11.6875 3.816406 -12.023438 C 3.785156 -12.113281 3.785156 -12.171875 3.816406 -12.265625 C 3.875 -12.535156 3.9375 -12.777344 4.027344 -13.050781 C 4.089844 -13.234375 4.210938 -13.382812 4.300781 -13.566406 C 4.421875 -13.71875 4.574219 -13.839844 4.722656 -13.929688 C 5.085938 -14.109375 5.449219 -14.230469 5.84375 -14.230469 C 6.390625 -14.230469 6.933594 -14.203125 7.480469 -14.109375 C 8.175781 -14.050781 8.871094 -13.988281 9.570312 -13.960938 C 9.660156 -13.960938 9.78125 -14.140625 9.75 -14.203125 C 9.75 -14.324219 9.691406 -14.445312 9.597656 -14.503906 C 9.507812 -14.535156 9.449219 -14.59375 9.386719 -14.625 C 8.84375 -14.808594 8.265625 -14.929688 7.691406 -14.929688 C 6.753906 -14.929688 5.8125 -14.929688 4.875 -14.929688 C 4.785156 -14.929688 4.664062 -14.929688 4.542969 -14.898438 C 3.96875 -14.835938 3.390625 -14.6875 2.847656 -14.472656 C 2.753906 -14.445312 2.632812 -14.382812 2.542969 -14.324219 C 2 -13.929688 1.574219 -13.414062 1.242188 -12.871094 C 1.121094 -12.6875 1.058594 -12.507812 1 -12.324219 C 0.910156 -12.050781 0.847656 -11.808594 0.789062 -11.539062 C 0.789062 -11.417969 0.757812 -11.292969 0.757812 -11.171875 C 0.726562 -10.71875 0.726562 -10.265625 0.910156 -9.8125 C 0.96875 -9.386719 1.152344 -8.992188 1.394531 -8.628906 C 1.515625 -8.449219 1.636719 -8.238281 1.757812 -8.054688 C 1.96875 -7.753906 2.210938 -7.507812 2.511719 -7.296875 C 2.785156 -7.117188 3.089844 -6.902344 3.390625 -6.722656 C 3.753906 -6.511719 4.117188 -6.328125 4.511719 -6.117188 C 4.90625 -5.90625 5.328125 -5.691406 5.753906 -5.511719 C 6.296875 -5.207031 6.8125 -4.84375 7.238281 -4.390625 C 7.539062 -4.117188 7.753906 -3.816406 7.753906 -3.390625 C 7.753906 -3.238281 7.8125 -3.089844 7.84375 -2.90625 Z M 7.84375 -2.90625 "/></g></g></g><g fill="#ffde59" fill-opacity="1"><g transform="translate(178.917229, 194.317434)"><g><path d="M 14.6875 -5.027344 C 14.6875 -6.238281 14.6875 -7.417969 14.6875 -8.628906 C 14.6875 -10.296875 14.714844 -11.960938 14.714844 -13.625 C 14.714844 -13.839844 14.714844 -14.019531 14.714844 -14.230469 C 14.6875 -14.351562 14.6875 -14.445312 14.65625 -14.566406 C 14.59375 -14.898438 14.351562 -15.109375 14.019531 -15.171875 C 13.898438 -15.171875 13.777344 -15.203125 13.6875 -15.203125 C 12.992188 -15.203125 12.265625 -15.203125 11.566406 -15.203125 C 11.507812 -15.203125 11.417969 -15.203125 11.355469 -15.203125 C 11.113281 -15.140625 10.929688 -15.019531 10.808594 -14.808594 C 10.6875 -14.566406 10.597656 -14.292969 10.597656 -14.019531 C 10.566406 -13.203125 10.539062 -12.386719 10.539062 -11.566406 C 10.507812 -10.203125 10.507812 -8.871094 10.507812 -7.507812 C 10.507812 -7.175781 10.507812 -6.875 10.445312 -6.570312 C 10.355469 -6.054688 10.386719 -5.570312 10.355469 -5.058594 C 10.355469 -4.511719 10.324219 -3.96875 10.324219 -3.421875 C 10.296875 -3.179688 10.203125 -2.996094 10.023438 -2.816406 C 9.570312 -2.390625 9.023438 -2.058594 8.449219 -1.847656 C 8.238281 -1.785156 7.996094 -1.757812 7.753906 -1.695312 C 7.386719 -1.574219 6.996094 -1.542969 6.632812 -1.542969 C 6.207031 -1.542969 5.84375 -1.664062 5.511719 -1.816406 C 5.390625 -1.878906 5.300781 -1.96875 5.207031 -2.027344 C 5.085938 -2.121094 4.996094 -2.269531 4.996094 -2.421875 C 4.964844 -2.695312 4.9375 -2.96875 4.9375 -3.238281 C 4.875 -5.480469 4.875 -7.753906 4.9375 -9.992188 C 4.964844 -11.355469 4.964844 -12.71875 4.964844 -14.050781 C 4.964844 -14.140625 4.9375 -14.230469 4.9375 -14.292969 C 4.875 -14.835938 4.574219 -15.140625 4.027344 -15.203125 C 3.875 -15.230469 3.722656 -15.230469 3.574219 -15.230469 C 2.996094 -15.230469 2.421875 -15.230469 1.816406 -15.230469 C 1.664062 -15.230469 1.515625 -15.230469 1.363281 -15.203125 C 1.152344 -15.171875 1 -15.050781 0.910156 -14.898438 C 0.847656 -14.777344 0.816406 -14.65625 0.789062 -14.566406 C 0.789062 -14.171875 0.789062 -13.777344 0.789062 -13.382812 C 0.726562 -11.992188 0.726562 -10.597656 0.695312 -9.207031 C 0.695312 -7.753906 0.667969 -6.328125 0.636719 -4.90625 C 0.636719 -4.785156 0.636719 -4.664062 0.605469 -4.542969 C 0.546875 -3.96875 0.574219 -3.390625 0.574219 -2.816406 C 0.574219 -2.484375 0.636719 -2.179688 0.726562 -1.878906 C 0.847656 -1.515625 1.03125 -1.179688 1.300781 -0.910156 C 1.695312 -0.574219 2.089844 -0.242188 2.453125 0.0898438 C 2.632812 0.242188 2.875 0.332031 3.089844 0.394531 C 3.542969 0.574219 4.058594 0.667969 4.542969 0.757812 C 4.816406 0.816406 5.085938 0.816406 5.359375 0.847656 C 5.875 0.96875 6.359375 0.878906 6.84375 0.726562 C 7.207031 0.605469 7.570312 0.453125 7.902344 0.242188 C 8.359375 -0.0625 8.8125 -0.363281 9.207031 -0.726562 C 9.417969 -0.910156 9.628906 -1.089844 9.839844 -1.273438 C 9.933594 -1.363281 10.175781 -1.273438 10.203125 -1.152344 C 10.234375 -1.058594 10.265625 -1 10.265625 -0.910156 C 10.324219 -0.183594 10.296875 0.574219 10.265625 1.300781 C 10.265625 1.421875 10.234375 1.542969 10.203125 1.636719 C 10.113281 2.027344 10.113281 2.421875 10.113281 2.816406 C 10.113281 3.269531 10.082031 3.722656 10.113281 4.210938 C 10.113281 4.601562 10.023438 4.964844 9.871094 5.328125 C 9.71875 5.664062 9.570312 5.964844 9.328125 6.207031 C 9.207031 6.328125 9.085938 6.417969 8.992188 6.570312 C 8.933594 6.691406 9.054688 6.996094 9.207031 7.054688 C 9.296875 7.085938 9.417969 7.117188 9.539062 7.117188 C 9.933594 7.175781 10.296875 7.144531 10.6875 7.144531 C 11.203125 7.117188 11.6875 6.996094 12.171875 6.78125 C 12.929688 6.480469 13.597656 6.054688 14.082031 5.359375 C 14.324219 5.027344 14.472656 4.695312 14.503906 4.300781 C 14.535156 3.359375 14.566406 2.421875 14.59375 1.484375 C 14.625 0.910156 14.625 0.332031 14.625 -0.242188 C 14.65625 -0.910156 14.65625 -1.574219 14.6875 -2.242188 C 14.6875 -3.148438 14.6875 -4.089844 14.6875 -5.027344 Z M 14.6875 -5.027344 "/></g></g></g><g clip-path="url(#71c1dfa693)"><path fill="#ffde59" d="M 56.027344 185.21875 C 55.546875 184.984375 55.34375 184.398438 55.582031 183.917969 L 60.078125 174.84375 L 61.828125 175.703125 L 57.332031 184.777344 C 57.09375 185.257812 56.507812 185.457031 56.027344 185.21875 Z M 61.496094 171.792969 L 61.523438 171.816406 C 69.085938 175.929688 72.109375 185.28125 68.261719 193.046875 C 67.136719 195.320312 65.539062 197.214844 63.648438 198.667969 C 60.457031 201.113281 56.429688 202.308594 52.390625 201.96875 L 57.269531 192.125 C 57.996094 190.710938 58.316406 190.476562 59.683594 189.90625 C 61.121094 189.304688 61.613281 189.179688 62.382812 187.855469 C 63.847656 185.320312 65.429688 180.671875 66.417969 177.941406 L 65.238281 177.390625 C 63.992188 180.109375 63.351562 181.722656 62.046875 184.261719 C 59.042969 190.113281 58.601562 187.148438 56.410156 189.351562 C 56.15625 189.605469 55.21875 191.28125 54.097656 193.386719 L 48.910156 203.855469 L 48.4375 204.808594 C 53.382812 206.1875 58.878906 205.488281 63.480469 202.425781 C 66.625 200.335938 68.902344 197.441406 70.226562 194.203125 C 70.15625 194.363281 70.085938 194.523438 70.011719 194.683594 C 73.9375 186.222656 70.386719 176.144531 61.9375 172.003906 C 61.792969 171.929688 61.644531 171.859375 61.496094 171.792969 Z M 58.527344 186.445312 C 58.046875 186.210938 57.847656 185.625 58.085938 185.148438 L 62.582031 176.070312 L 64.332031 176.929688 L 59.835938 186.003906 C 59.597656 186.484375 59.011719 186.679688 58.527344 186.445312 Z M 58.527344 186.445312 " fill-opacity="1" fill-rule="evenodd"/></g><g clip-path="url(#56345f71f2)"><path fill="#69b550" d="M 36.609375 185.878906 L 36.914062 185.484375 C 37.136719 185.136719 37.03125 185.347656 37.246094 184.917969 L 38.488281 182.363281 C 40.007812 179.667969 43.691406 174.957031 47.941406 173.671875 C 45.050781 175.726562 40.828125 178.625 38.066406 186.167969 C 35.574219 192.980469 37.234375 198.179688 40.601562 200.648438 C 43.722656 202.933594 47.734375 203.5 49.320312 200.429688 C 50.558594 198.035156 51.898438 195.445312 53.191406 192.941406 C 54.1875 190.773438 54.953125 189.011719 55 188.65625 C 55.421875 185.589844 52.789062 187.046875 55.625 181.113281 C 56.855469 178.535156 57.75 177.046875 59.160156 174.40625 L 58.003906 173.8125 C 56.425781 176.257812 53.683594 180.335938 52.558594 183.039062 C 51.96875 184.453125 52.167969 184.914062 52.566406 186.414062 C 52.941406 187.84375 52.949219 188.238281 52.265625 189.671875 L 48.394531 197.171875 C 46.589844 200.667969 43.0625 199.738281 40.78125 197.148438 C 38.953125 195.070312 38.214844 191.785156 39.339844 188.253906 C 41.265625 187.1875 43.738281 187.386719 46.445312 185.621094 C 50.984375 182.660156 51.746094 174.320312 56.949219 170.75 C 51.140625 166.332031 31.164062 173.984375 36.609375 185.878906 Z M 36.609375 185.878906 " fill-opacity="1" fill-rule="evenodd"/></g></svg>